{"title":"Tomorrowland 2015 CAMRip XviD MP3 Idiocracy","uid":11956185,"size":968496728,"categoryP":"video","categoryS":"movies","magnet":"?xt=urn:btih:6a1dd7e393a1016b50873d2057fce1ff21564981&amp;dn=Tomorrowland+2015+CAMRip+XviD+MP3+Idiocracy&amp;tr=udp%3A%2F%2Ftracker.openbittorrent.com%3A80&amp;tr=udp%3A%2F%2Fopen.demonii.com%3A1337&amp;tr=udp%3A%2F%2Ftracker.coppersurfer.tk%3A6969&amp;tr=udp%3A%2F%2Fexodus.desync.com%3A6969","seeders":0,"leechers":1,"uploader":"Satafakap","files":2,"time":1432430296,"description":"Synopsis / Plot\n\nBound by a shared destiny, a teen bursting with scientific curiosity and a former boy-genius inventor embark on a mission to unearth the secrets of a place somewhere in time and space that exists in their collective memory.\n\nDirector: Brad Bird\nWriters: Damon Lindelof (screenplay), Brad Bird (screenplay)\nStars: George Clooney, Britt Robertson, Hugh Laurie \n &lt;a href=&quot;\nhttp://www.imdb.com/title/tt1964418/&quot; rel=&quot;nofollow&quot; target=&quot;_NEW&quot;&gt;\nhttp://www.imdb.com/title/tt1964418/&lt;/a&gt;\n\nGeneral\n\nComplete name       : Tomorrowland.2015.CAMRip.XviD.MP3-Idiocracy.avi\nFormat              : AVI\nFormat/Info         : Audio Video Interleave\nFile size           : 907 MiB\nDuration            : 2h 1mn\nOverall bit rate    : 1 045 Kbps\nWriting application : VirtualDubMod 1.5.10.3 | www.virtualdub-fr.org\nWriting library     : VirtualDubMod build 2550/release\nSource              : Tomorrowland - {2015} - Cam - X264 - Maxillion - Thanks!\nSample              : Yes\n\nVideo\n\nID                                       : 0\nFormat                                   : MPEG-4 Visual\nFormat profile                           : Advanced Simple@L5\nFormat settings, BVOP                    : 2\nFormat settings, QPel                    : No\nFormat settings, GMC                     : No warppoints\nFormat settings, Matrix                  : Default (H.263)\nMuxing mode                              : Packed bitstream\nCodec ID                                 : XVID\nCodec ID/Hint                            : XviD\nDuration                                 : 2h 1mn\nBit rate                                 : 905 Kbps\nWidth                                    : 640 pixels\nHeight                                   : 288 pixels\nDisplay aspect ratio                     : 2.222\nFrame rate                               : 29.970 fps\nColor space                              : YUV\nChroma subsampling                       : 4:2:0\nBit depth                                : 8 bits\nScan type                                : Progressive\nCompression mode                         : Lossy\nBits/(Pixel*Frame)                       : 0.164\nStream size                              : 786 MiB (87%)\nWriting library                          : XviD 64\n\nAudio\n\nID                                       : 1\nFormat                                   : MPEG Audio\nFormat version                           : Version 1\nFormat profile                           : Layer 3\nMode                                     : Joint stereo\nMode extension                           : MS Stereo\nCodec ID                                 : 55\nCodec ID/Hint                            : MP3\nDuration                                 : 2h 1mn\nBit rate mode                            : Constant\nBit rate                                 : 128 Kbps\nChannel(s)                               : 2 channels\nSampling rate                            : 44.1 KHz\nCompression mode                         : Lossy\nStream size                              : 111 MiB (12%)\nAlignment                                : Split accross interleaves\nInterleave, duration                     : 33 ms (1.00 video frame)\nInterleave, preload duration             : 501 ms\n\nScreenshots:\n &lt;a href=&quot;\nhttp://i.imgur.com/EcnWk4l.jpg&quot; rel=&quot;nofollow&quot; target=&quot;_NEW&quot;&gt;\nhttp://i.imgur.com/EcnWk4l.jpg&lt;/a&gt;\n &lt;a href=&quot;\nhttp://i.imgur.com/klY9UMK.jpg&quot; rel=&quot;nofollow&quot; target=&quot;_NEW&quot;&gt;\nhttp://i.imgur.com/klY9UMK.jpg&lt;/a&gt;\n &lt;a href=&quot;\nhttp://i.imgur.com/Nw1l8J2.jpg&quot; rel=&quot;nofollow&quot; target=&quot;_NEW&quot;&gt;\nhttp://i.imgur.com/Nw1l8J2.jpg&lt;/a&gt;\n &lt;a href=&quot;\nhttp://i.imgur.com/FzPRgKa.jpg&quot; rel=&quot;nofollow&quot; target=&quot;_NEW&quot;&gt;\nhttp://i.imgur.com/FzPRgKa.jpg&lt;/a&gt;\n &lt;a href=&quot;\nhttp://i.imgur.com/88eo6mb.jpg&quot; rel=&quot;nofollow&quot; target=&quot;_NEW&quot;&gt;\nhttp://i.imgur.com/88eo6mb.jpg&lt;/a&gt;","torrent":{"xt":"urn:btih:6a1dd7e393a1016b50873d2057fce1ff21564981","amp;dn":"Tomorrowland+2015+CAMRip+XviD+MP3+Idiocracy","amp;tr":["udp%3A%2F%2Ftracker.openbittorrent.com%3A80","udp%3A%2F%2Fopen.demonii.com%3A1337","udp%3A%2F%2Ftracker.coppersurfer.tk%3A6969","udp%3A%2F%2Fexodus.desync.com%3A6969"],"infoHash":"6a1dd7e393a1016b50873d2057fce1ff21564981","infoHashBuffer":{"type":"Buffer","data":[106,29,215,227,147,161,1,107,80,135,61,32,87,252,225,255,33,86,73,129]},"announce":[],"urlList":[]}}